solid OpenSCAD_Model
  facet normal 0 -1 0
    outer loop
      vertex 0 0 11
      vertex 3.10592 0 10.1451
      vertex 5.75 0 11
    endloop
  endfacet
  facet normal 0 -1 0
    outer loop
      vertex 0 0 11
      vertex 2.92188 0 10.106
      vertex 3.10592 0 10.1451
    endloop
  endfacet
  facet normal 0 -1 0
    outer loop
      vertex 0 0 11
      vertex 2.75 0 10.0294
      vertex 2.92188 0 10.106
    endloop
  endfacet
  facet normal 0 -1 0
    outer loop
      vertex 0 0 11
      vertex 2.59778 0 9.91883
      vertex 2.75 0 10.0294
    endloop
  endfacet
  facet normal 0 -1 0
    outer loop
      vertex 0 0 11
      vertex 2.47188 0 9.77901
      vertex 2.59778 0 9.91883
    endloop
  endfacet
  facet normal 0 -1 0
    outer loop
      vertex 0 0 11
      vertex 2.37781 0 9.61606
      vertex 2.47188 0 9.77901
    endloop
  endfacet
  facet normal 0 -1 0
    outer loop
      vertex 0 0 11
      vertex 2.31967 0 9.43712
      vertex 2.37781 0 9.61606
    endloop
  endfacet
  facet normal 0 -1 0
    outer loop
      vertex 0 0 11
      vertex 2.3 0 9.25
      vertex 2.31967 0 9.43712
    endloop
  endfacet
  facet normal 0 -1 0
    outer loop
      vertex 0 0 11
      vertex 2.31967 0 9.06288
      vertex 2.3 0 9.25
    endloop
  endfacet
  facet normal 0 -1 0
    outer loop
      vertex 0 0 11
      vertex 2.37781 0 8.88394
      vertex 2.31967 0 9.06288
    endloop
  endfacet
  facet normal 0 -1 0
    outer loop
      vertex 0 0 11
      vertex 2.47188 0 8.72099
      vertex 2.37781 0 8.88394
    endloop
  endfacet
  facet normal 0 -1 0
    outer loop
      vertex 0 0 0
      vertex 2.47188 0 8.72099
      vertex 0 0 11
    endloop
  endfacet
  facet normal 0 -1 0
    outer loop
      vertex 3.10592 0 8.35493
      vertex 5.75 0 3
      vertex 3.29408 0 8.35493
    endloop
  endfacet
  facet normal 0 -1 0
    outer loop
      vertex 2.92188 0 8.39405
      vertex 5.75 0 3
      vertex 3.10592 0 8.35493
    endloop
  endfacet
  facet normal 0 -1 0
    outer loop
      vertex 0 0 0
      vertex 2.92188 0 8.39405
      vertex 2.75 0 8.47058
    endloop
  endfacet
  facet normal 0 -1 0
    outer loop
      vertex 0 0 0
      vertex 2.75 0 8.47058
      vertex 2.59778 0 8.58117
    endloop
  endfacet
  facet normal 0 -1 -0
    outer loop
      vertex 2.47188 0 8.72099
      vertex 0 0 0
      vertex 2.59778 0 8.58117
    endloop
  endfacet
  facet normal 0 -1 0
    outer loop
      vertex 0 0 0
      vertex 29.25 0 3
      vertex 5.75 0 3
    endloop
  endfacet
  facet normal 0 -1 -0
    outer loop
      vertex 29.25 0 3
      vertex 0 0 0
      vertex 35 0 3
    endloop
  endfacet
  facet normal 0 -1 -0
    outer loop
      vertex 2.92188 0 8.39405
      vertex 0 0 0
      vertex 5.75 0 3
    endloop
  endfacet
  facet normal 0 -1 -0
    outer loop
      vertex 35 0 3
      vertex 0 0 0
      vertex 70 0 0
    endloop
  endfacet
  facet normal 0 -1 0
    outer loop
      vertex 35 0 3
      vertex 70 0 0
      vertex 70 0 3
    endloop
  endfacet
  facet normal 0 -1 0
    outer loop
      vertex 3.29408 0 10.1451
      vertex 5.75 0 11
      vertex 3.10592 0 10.1451
    endloop
  endfacet
  facet normal 0 -1 0
    outer loop
      vertex 3.47812 0 10.106
      vertex 5.75 0 11
      vertex 3.29408 0 10.1451
    endloop
  endfacet
  facet normal 0 -1 0
    outer loop
      vertex 3.65 0 10.0294
      vertex 5.75 0 11
      vertex 3.47812 0 10.106
    endloop
  endfacet
  facet normal 0 -1 0
    outer loop
      vertex 3.80222 0 9.91883
      vertex 5.75 0 11
      vertex 3.65 0 10.0294
    endloop
  endfacet
  facet normal 0 -1 0
    outer loop
      vertex 3.92811 0 9.77901
      vertex 5.75 0 11
      vertex 3.80222 0 9.91883
    endloop
  endfacet
  facet normal 0 -1 0
    outer loop
      vertex 4.02219 0 9.61606
      vertex 5.75 0 11
      vertex 3.92811 0 9.77901
    endloop
  endfacet
  facet normal 0 -1 0
    outer loop
      vertex 4.08033 0 9.43712
      vertex 5.75 0 11
      vertex 4.02219 0 9.61606
    endloop
  endfacet
  facet normal 0 -1 0
    outer loop
      vertex 4.1 0 9.25
      vertex 5.75 0 11
      vertex 4.08033 0 9.43712
    endloop
  endfacet
  facet normal 0 -1 0
    outer loop
      vertex 4.08033 0 9.06288
      vertex 5.75 0 11
      vertex 4.1 0 9.25
    endloop
  endfacet
  facet normal 0 -1 0
    outer loop
      vertex 4.02219 0 8.88394
      vertex 5.75 0 11
      vertex 4.08033 0 9.06288
    endloop
  endfacet
  facet normal 0 -1 0
    outer loop
      vertex 5.75 0 3
      vertex 4.02219 0 8.88394
      vertex 3.92811 0 8.72099
    endloop
  endfacet
  facet normal 0 -1 0
    outer loop
      vertex 4.02219 0 8.88394
      vertex 5.75 0 3
      vertex 5.75 0 11
    endloop
  endfacet
  facet normal 0 -1 0
    outer loop
      vertex 3.80222 0 8.58117
      vertex 5.75 0 3
      vertex 3.92811 0 8.72099
    endloop
  endfacet
  facet normal 0 -1 0
    outer loop
      vertex 3.65 0 8.47058
      vertex 5.75 0 3
      vertex 3.80222 0 8.58117
    endloop
  endfacet
  facet normal 0 -1 0
    outer loop
      vertex 3.47812 0 8.39405
      vertex 5.75 0 3
      vertex 3.65 0 8.47058
    endloop
  endfacet
  facet normal 0 -1 0
    outer loop
      vertex 5.75 0 3
      vertex 3.47812 0 8.39405
      vertex 3.29408 0 8.35493
    endloop
  endfacet
  facet normal 0 -1 0
    outer loop
      vertex 31.8941 0 10.1451
      vertex 29.25 0 11
      vertex 31.7059 0 10.1451
    endloop
  endfacet
  facet normal 0 -1 0
    outer loop
      vertex 29.25 0 11
      vertex 31.5219 0 10.106
      vertex 31.7059 0 10.1451
    endloop
  endfacet
  facet normal 0 -1 0
    outer loop
      vertex 29.25 0 11
      vertex 31.35 0 10.0294
      vertex 31.5219 0 10.106
    endloop
  endfacet
  facet normal 0 -1 0
    outer loop
      vertex 29.25 0 11
      vertex 31.1978 0 9.91883
      vertex 31.35 0 10.0294
    endloop
  endfacet
  facet normal 0 -1 0
    outer loop
      vertex 29.25 0 11
      vertex 31.0719 0 9.77901
      vertex 31.1978 0 9.91883
    endloop
  endfacet
  facet normal 0 -1 0
    outer loop
      vertex 29.25 0 11
      vertex 30.9778 0 9.61606
      vertex 31.0719 0 9.77901
    endloop
  endfacet
  facet normal 0 -1 0
    outer loop
      vertex 29.25 0 11
      vertex 30.9197 0 9.43712
      vertex 30.9778 0 9.61606
    endloop
  endfacet
  facet normal 0 -1 0
    outer loop
      vertex 29.25 0 11
      vertex 30.9 0 9.25
      vertex 30.9197 0 9.43712
    endloop
  endfacet
  facet normal 0 -1 0
    outer loop
      vertex 29.25 0 11
      vertex 30.9197 0 9.06288
      vertex 30.9 0 9.25
    endloop
  endfacet
  facet normal 0 -1 0
    outer loop
      vertex 29.25 0 11
      vertex 30.9778 0 8.88394
      vertex 30.9197 0 9.06288
    endloop
  endfacet
  facet normal 0 -1 0
    outer loop
      vertex 29.25 0 3
      vertex 30.9778 0 8.88394
      vertex 29.25 0 11
    endloop
  endfacet
  facet normal 0 -1 -0
    outer loop
      vertex 31.7059 0 8.35493
      vertex 29.25 0 3
      vertex 31.8941 0 8.35493
    endloop
  endfacet
  facet normal 0 -1 -0
    outer loop
      vertex 31.5219 0 8.39405
      vertex 29.25 0 3
      vertex 31.7059 0 8.35493
    endloop
  endfacet
  facet normal 0 -1 -0
    outer loop
      vertex 31.35 0 8.47058
      vertex 29.25 0 3
      vertex 31.5219 0 8.39405
    endloop
  endfacet
  facet normal 0 -1 -0
    outer loop
      vertex 31.1978 0 8.58117
      vertex 29.25 0 3
      vertex 31.35 0 8.47058
    endloop
  endfacet
  facet normal 0 -1 -0
    outer loop
      vertex 31.0719 0 8.72099
      vertex 29.25 0 3
      vertex 31.1978 0 8.58117
    endloop
  endfacet
  facet normal 0 -1 -0
    outer loop
      vertex 30.9778 0 8.88394
      vertex 29.25 0 3
      vertex 31.0719 0 8.72099
    endloop
  endfacet
  facet normal 0 -1 0
    outer loop
      vertex 29.25 0 11
      vertex 31.8941 0 10.1451
      vertex 35 0 11
    endloop
  endfacet
  facet normal 0 -1 0
    outer loop
      vertex 32.0781 0 10.106
      vertex 35 0 11
      vertex 31.8941 0 10.1451
    endloop
  endfacet
  facet normal 0 -1 0
    outer loop
      vertex 32.25 0 10.0294
      vertex 35 0 11
      vertex 32.0781 0 10.106
    endloop
  endfacet
  facet normal 0 -1 0
    outer loop
      vertex 32.4022 0 9.91883
      vertex 35 0 11
      vertex 32.25 0 10.0294
    endloop
  endfacet
  facet normal 0 -1 0
    outer loop
      vertex 32.5281 0 9.77901
      vertex 35 0 11
      vertex 32.4022 0 9.91883
    endloop
  endfacet
  facet normal 0 -1 0
    outer loop
      vertex 32.6222 0 9.61606
      vertex 35 0 11
      vertex 32.5281 0 9.77901
    endloop
  endfacet
  facet normal 0 -1 0
    outer loop
      vertex 32.6803 0 9.43712
      vertex 35 0 11
      vertex 32.6222 0 9.61606
    endloop
  endfacet
  facet normal 0 -1 0
    outer loop
      vertex 32.7 0 9.25
      vertex 35 0 11
      vertex 32.6803 0 9.43712
    endloop
  endfacet
  facet normal 0 -1 0
    outer loop
      vertex 32.6803 0 9.06288
      vertex 35 0 11
      vertex 32.7 0 9.25
    endloop
  endfacet
  facet normal 0 -1 0
    outer loop
      vertex 32.6222 0 8.88394
      vertex 35 0 11
      vertex 32.6803 0 9.06288
    endloop
  endfacet
  facet normal 0 -1 0
    outer loop
      vertex 35 0 3
      vertex 32.6222 0 8.88394
      vertex 32.5281 0 8.72099
    endloop
  endfacet
  facet normal 0 -1 0
    outer loop
      vertex 35 0 3
      vertex 32.5281 0 8.72099
      vertex 32.4022 0 8.58117
    endloop
  endfacet
  facet normal 0 -1 0
    outer loop
      vertex 35 0 3
      vertex 31.8941 0 8.35493
      vertex 29.25 0 3
    endloop
  endfacet
  facet normal 0 -1 0
    outer loop
      vertex 31.8941 0 8.35493
      vertex 35 0 3
      vertex 32.0781 0 8.39405
    endloop
  endfacet
  facet normal 0 -1 0
    outer loop
      vertex 32.0781 0 8.39405
      vertex 35 0 3
      vertex 32.25 0 8.47058
    endloop
  endfacet
  facet normal 0 -1 0
    outer loop
      vertex 32.25 0 8.47058
      vertex 35 0 3
      vertex 32.4022 0 8.58117
    endloop
  endfacet
  facet normal 0 -1 0
    outer loop
      vertex 32.6222 0 8.88394
      vertex 35 0 3
      vertex 35 0 11
    endloop
  endfacet
  facet normal -1 0 0
    outer loop
      vertex 0 20 0
      vertex 0 16.75 3
      vertex 0 20 3
    endloop
  endfacet
  facet normal -1 0 0
    outer loop
      vertex 0 0 0
      vertex 0 16.75 3
      vertex 0 20 0
    endloop
  endfacet
  facet normal -1 -0 0
    outer loop
      vertex 0 16.75 3
      vertex 0 0 0
      vertex 0 5.75 11
    endloop
  endfacet
  facet normal -1 -0 0
    outer loop
      vertex 0 5.75 11
      vertex 0 0 0
      vertex 0 0 11
    endloop
  endfacet
  facet normal 0 0 -1
    outer loop
      vertex 70 0 0
      vertex 65.15 10 0
      vertex 70 20 0
    endloop
  endfacet
  facet normal 0 0 -1
    outer loop
      vertex 70 0 0
      vertex 65.0921 9.44903 0
      vertex 65.15 10 0
    endloop
  endfacet
  facet normal 0 0 -1
    outer loop
      vertex 70 0 0
      vertex 64.9209 8.92215 0
      vertex 65.0921 9.44903 0
    endloop
  endfacet
  facet normal 0 0 -1
    outer loop
      vertex 70 0 0
      vertex 64.6439 8.44237 0
      vertex 64.9209 8.92215 0
    endloop
  endfacet
  facet normal 0 0 -1
    outer loop
      vertex 70 0 0
      vertex 64.2732 8.03067 0
      vertex 64.6439 8.44237 0
    endloop
  endfacet
  facet normal 0 0 -1
    outer loop
      vertex 70 0 0
      vertex 63.825 7.70503 0
      vertex 64.2732 8.03067 0
    endloop
  endfacet
  facet normal 0 0 -1
    outer loop
      vertex 70 0 0
      vertex 63.3189 7.4797 0
      vertex 63.825 7.70503 0
    endloop
  endfacet
  facet normal 0 0 -1
    outer loop
      vertex 70 0 0
      vertex 62.777 7.36452 0
      vertex 63.3189 7.4797 0
    endloop
  endfacet
  facet normal 0 0 -1
    outer loop
      vertex 70 0 0
      vertex 42.223 7.36452 0
      vertex 62.777 7.36452 0
    endloop
  endfacet
  facet normal 0 0 -1
    outer loop
      vertex 0 0 0
      vertex 42.223 7.36452 0
      vertex 70 0 0
    endloop
  endfacet
  facet normal -0 0 -1
    outer loop
      vertex 39.9079 9.44903 0
      vertex 0 0 0
      vertex 39.85 10 0
    endloop
  endfacet
  facet normal -0 0 -1
    outer loop
      vertex 40.0791 8.92215 0
      vertex 0 0 0
      vertex 39.9079 9.44903 0
    endloop
  endfacet
  facet normal -0 0 -1
    outer loop
      vertex 40.3561 8.44237 0
      vertex 0 0 0
      vertex 40.0791 8.92215 0
    endloop
  endfacet
  facet normal -0 0 -1
    outer loop
      vertex 40.7268 8.03067 0
      vertex 0 0 0
      vertex 40.3561 8.44237 0
    endloop
  endfacet
  facet normal -0 0 -1
    outer loop
      vertex 41.175 7.70503 0
      vertex 0 0 0
      vertex 40.7268 8.03067 0
    endloop
  endfacet
  facet normal -0 0 -1
    outer loop
      vertex 41.6811 7.4797 0
      vertex 0 0 0
      vertex 41.175 7.70503 0
    endloop
  endfacet
  facet normal -0 0 -1
    outer loop
      vertex 42.223 7.36452 0
      vertex 0 0 0
      vertex 41.6811 7.4797 0
    endloop
  endfacet
  facet normal 0 0 -1
    outer loop
      vertex 65.0921 10.551 0
      vertex 70 20 0
      vertex 65.15 10 0
    endloop
  endfacet
  facet normal 0 0 -1
    outer loop
      vertex 64.9209 11.0779 0
      vertex 70 20 0
      vertex 65.0921 10.551 0
    endloop
  endfacet
  facet normal 0 0 -1
    outer loop
      vertex 64.6439 11.5576 0
      vertex 70 20 0
      vertex 64.9209 11.0779 0
    endloop
  endfacet
  facet normal 0 0 -1
    outer loop
      vertex 64.2732 11.9693 0
      vertex 70 20 0
      vertex 64.6439 11.5576 0
    endloop
  endfacet
  facet normal 0 0 -1
    outer loop
      vertex 63.825 12.295 0
      vertex 70 20 0
      vertex 64.2732 11.9693 0
    endloop
  endfacet
  facet normal 0 0 -1
    outer loop
      vertex 63.3189 12.5203 0
      vertex 70 20 0
      vertex 63.825 12.295 0
    endloop
  endfacet
  facet normal 0 0 -1
    outer loop
      vertex 62.777 12.6355 0
      vertex 70 20 0
      vertex 63.3189 12.5203 0
    endloop
  endfacet
  facet normal 0 0 -1
    outer loop
      vertex 42.223 12.6355 0
      vertex 70 20 0
      vertex 62.777 12.6355 0
    endloop
  endfacet
  facet normal 0 0 -1
    outer loop
      vertex 0 20 0
      vertex 42.223 12.6355 0
      vertex 41.6811 12.5203 0
    endloop
  endfacet
  facet normal 0 0 -1
    outer loop
      vertex 0 20 0
      vertex 39.85 10 0
      vertex 0 0 0
    endloop
  endfacet
  facet normal 0 0 -1
    outer loop
      vertex 39.85 10 0
      vertex 0 20 0
      vertex 39.9079 10.551 0
    endloop
  endfacet
  facet normal 0 0 -1
    outer loop
      vertex 39.9079 10.551 0
      vertex 0 20 0
      vertex 40.0791 11.0779 0
    endloop
  endfacet
  facet normal 0 0 -1
    outer loop
      vertex 40.0791 11.0779 0
      vertex 0 20 0
      vertex 40.3561 11.5576 0
    endloop
  endfacet
  facet normal 0 0 -1
    outer loop
      vertex 40.3561 11.5576 0
      vertex 0 20 0
      vertex 40.7268 11.9693 0
    endloop
  endfacet
  facet normal 0 0 -1
    outer loop
      vertex 40.7268 11.9693 0
      vertex 0 20 0
      vertex 41.175 12.295 0
    endloop
  endfacet
  facet normal 0 0 -1
    outer loop
      vertex 42.223 12.6355 0
      vertex 0 20 0
      vertex 70 20 0
    endloop
  endfacet
  facet normal 0 0 -1
    outer loop
      vertex 41.175 12.295 0
      vertex 0 20 0
      vertex 41.6811 12.5203 0
    endloop
  endfacet
  facet normal 1 0 0
    outer loop
      vertex 5.75 0 3
      vertex 5.75 5.75 11
      vertex 5.75 0 11
    endloop
  endfacet
  facet normal 1 0 0
    outer loop
      vertex 5.75 5.75 11
      vertex 5.75 0 3
      vertex 5.75 16.75 3
    endloop
  endfacet
  facet normal -0 0.588172 0.808736
    outer loop
      vertex 0 16.75 3
      vertex 5.75 5.75 11
      vertex 5.75 16.75 3
    endloop
  endfacet
  facet normal 0 0.588172 0.808736
    outer loop
      vertex 5.75 5.75 11
      vertex 0 16.75 3
      vertex 0 5.75 11
    endloop
  endfacet
  facet normal -0 0 1
    outer loop
      vertex 0 5.75 11
      vertex 5.75 0 11
      vertex 5.75 5.75 11
    endloop
  endfacet
  facet normal 0 0 1
    outer loop
      vertex 5.75 0 11
      vertex 0 5.75 11
      vertex 0 0 11
    endloop
  endfacet
  facet normal 1 0 0
    outer loop
      vertex 35 0 3
      vertex 35 5.75 11
      vertex 35 0 11
    endloop
  endfacet
  facet normal 1 0 0
    outer loop
      vertex 35 5.75 11
      vertex 35 0 3
      vertex 35 16.75 3
    endloop
  endfacet
  facet normal 0 0 1
    outer loop
      vertex 70 20 3
      vertex 65.15 10 3
      vertex 70 0 3
    endloop
  endfacet
  facet normal 0 0 1
    outer loop
      vertex 70 20 3
      vertex 65.0921 10.551 3
      vertex 65.15 10 3
    endloop
  endfacet
  facet normal 0 0 1
    outer loop
      vertex 70 20 3
      vertex 64.9209 11.0779 3
      vertex 65.0921 10.551 3
    endloop
  endfacet
  facet normal 0 0 1
    outer loop
      vertex 70 20 3
      vertex 64.6439 11.5576 3
      vertex 64.9209 11.0779 3
    endloop
  endfacet
  facet normal 0 0 1
    outer loop
      vertex 70 20 3
      vertex 64.2732 11.9693 3
      vertex 64.6439 11.5576 3
    endloop
  endfacet
  facet normal 0 0 1
    outer loop
      vertex 70 20 3
      vertex 63.825 12.295 3
      vertex 64.2732 11.9693 3
    endloop
  endfacet
  facet normal 0 0 1
    outer loop
      vertex 70 20 3
      vertex 63.3189 12.5203 3
      vertex 63.825 12.295 3
    endloop
  endfacet
  facet normal 0 0 1
    outer loop
      vertex 70 20 3
      vertex 62.777 12.6355 3
      vertex 63.3189 12.5203 3
    endloop
  endfacet
  facet normal 0 0 1
    outer loop
      vertex 70 20 3
      vertex 42.223 12.6355 3
      vertex 62.777 12.6355 3
    endloop
  endfacet
  facet normal -0 0 1
    outer loop
      vertex 35 16.75 3
      vertex 42.223 12.6355 3
      vertex 70 20 3
    endloop
  endfacet
  facet normal 0 0 1
    outer loop
      vertex 39.9079 10.551 3
      vertex 35 16.75 3
      vertex 39.85 10 3
    endloop
  endfacet
  facet normal 0 0 1
    outer loop
      vertex 40.0791 11.0779 3
      vertex 35 16.75 3
      vertex 39.9079 10.551 3
    endloop
  endfacet
  facet normal 0 0 1
    outer loop
      vertex 40.3561 11.5576 3
      vertex 35 16.75 3
      vertex 40.0791 11.0779 3
    endloop
  endfacet
  facet normal 0 0 1
    outer loop
      vertex 40.7268 11.9693 3
      vertex 35 16.75 3
      vertex 40.3561 11.5576 3
    endloop
  endfacet
  facet normal 0 0 1
    outer loop
      vertex 41.175 12.295 3
      vertex 35 16.75 3
      vertex 40.7268 11.9693 3
    endloop
  endfacet
  facet normal 0 0 1
    outer loop
      vertex 41.6811 12.5203 3
      vertex 35 16.75 3
      vertex 41.175 12.295 3
    endloop
  endfacet
  facet normal 0 0 1
    outer loop
      vertex 42.223 12.6355 3
      vertex 35 16.75 3
      vertex 41.6811 12.5203 3
    endloop
  endfacet
  facet normal -0 0 1
    outer loop
      vertex 0 20 3
      vertex 35 16.75 3
      vertex 70 20 3
    endloop
  endfacet
  facet normal 0 0 1
    outer loop
      vertex 29.25 16.75 3
      vertex 5.75 16.75 3
      vertex 29.25 0 3
    endloop
  endfacet
  facet normal 0 0 1
    outer loop
      vertex 35 16.75 3
      vertex 0 20 3
      vertex 29.25 16.75 3
    endloop
  endfacet
  facet normal 0 0 1
    outer loop
      vertex 29.25 16.75 3
      vertex 0 20 3
      vertex 5.75 16.75 3
    endloop
  endfacet
  facet normal 0 0 1
    outer loop
      vertex 5.75 16.75 3
      vertex 0 20 3
      vertex 0 16.75 3
    endloop
  endfacet
  facet normal -0 0 1
    outer loop
      vertex 65.0921 9.44903 3
      vertex 70 0 3
      vertex 65.15 10 3
    endloop
  endfacet
  facet normal -0 0 1
    outer loop
      vertex 64.9209 8.92215 3
      vertex 70 0 3
      vertex 65.0921 9.44903 3
    endloop
  endfacet
  facet normal -0 0 1
    outer loop
      vertex 64.6439 8.44237 3
      vertex 70 0 3
      vertex 64.9209 8.92215 3
    endloop
  endfacet
  facet normal -0 0 1
    outer loop
      vertex 64.2732 8.03067 3
      vertex 70 0 3
      vertex 64.6439 8.44237 3
    endloop
  endfacet
  facet normal -0 0 1
    outer loop
      vertex 63.825 7.70503 3
      vertex 70 0 3
      vertex 64.2732 8.03067 3
    endloop
  endfacet
  facet normal -0 0 1
    outer loop
      vertex 63.3189 7.4797 3
      vertex 70 0 3
      vertex 63.825 7.70503 3
    endloop
  endfacet
  facet normal -0 0 1
    outer loop
      vertex 62.777 7.36452 3
      vertex 70 0 3
      vertex 63.3189 7.4797 3
    endloop
  endfacet
  facet normal -0 0 1
    outer loop
      vertex 42.223 7.36452 3
      vertex 70 0 3
      vertex 62.777 7.36452 3
    endloop
  endfacet
  facet normal 0 0 1
    outer loop
      vertex 35 0 3
      vertex 42.223 7.36452 3
      vertex 41.6811 7.4797 3
    endloop
  endfacet
  facet normal 0 0 1
    outer loop
      vertex 35 16.75 3
      vertex 39.9079 9.44903 3
      vertex 39.85 10 3
    endloop
  endfacet
  facet normal 0 0 1
    outer loop
      vertex 35 0 3
      vertex 39.9079 9.44903 3
      vertex 35 16.75 3
    endloop
  endfacet
  facet normal 0 0 1
    outer loop
      vertex 39.9079 9.44903 3
      vertex 35 0 3
      vertex 40.0791 8.92215 3
    endloop
  endfacet
  facet normal 0 0 1
    outer loop
      vertex 42.223 7.36452 3
      vertex 35 0 3
      vertex 70 0 3
    endloop
  endfacet
  facet normal 0 0 1
    outer loop
      vertex 41.175 7.70503 3
      vertex 35 0 3
      vertex 41.6811 7.4797 3
    endloop
  endfacet
  facet normal 0 0 1
    outer loop
      vertex 40.7268 8.03067 3
      vertex 35 0 3
      vertex 41.175 7.70503 3
    endloop
  endfacet
  facet normal 0 0 1
    outer loop
      vertex 40.3561 8.44237 3
      vertex 35 0 3
      vertex 40.7268 8.03067 3
    endloop
  endfacet
  facet normal 0 0 1
    outer loop
      vertex 40.0791 8.92215 3
      vertex 35 0 3
      vertex 40.3561 8.44237 3
    endloop
  endfacet
  facet normal 0 0 1
    outer loop
      vertex 29.25 0 3
      vertex 5.75 16.75 3
      vertex 5.75 0 3
    endloop
  endfacet
  facet normal -1 0 0
    outer loop
      vertex 29.25 0 3
      vertex 29.25 5.75 11
      vertex 29.25 16.75 3
    endloop
  endfacet
  facet normal -1 -0 0
    outer loop
      vertex 29.25 5.75 11
      vertex 29.25 0 3
      vertex 29.25 0 11
    endloop
  endfacet
  facet normal -0 0.588172 0.808736
    outer loop
      vertex 29.25 16.75 3
      vertex 35 5.75 11
      vertex 35 16.75 3
    endloop
  endfacet
  facet normal 0 0.588172 0.808736
    outer loop
      vertex 35 5.75 11
      vertex 29.25 16.75 3
      vertex 29.25 5.75 11
    endloop
  endfacet
  facet normal -0 0 1
    outer loop
      vertex 29.25 5.75 11
      vertex 35 0 11
      vertex 35 5.75 11
    endloop
  endfacet
  facet normal 0 0 1
    outer loop
      vertex 35 0 11
      vertex 29.25 5.75 11
      vertex 29.25 0 11
    endloop
  endfacet
  facet normal 0 1 -0
    outer loop
      vertex 70 20 0
      vertex 0 20 3
      vertex 70 20 3
    endloop
  endfacet
  facet normal 0 1 0
    outer loop
      vertex 0 20 3
      vertex 70 20 0
      vertex 0 20 0
    endloop
  endfacet
  facet normal 1 -0 0
    outer loop
      vertex 70 0 3
      vertex 70 20 0
      vertex 70 20 3
    endloop
  endfacet
  facet normal 1 0 0
    outer loop
      vertex 70 20 0
      vertex 70 0 3
      vertex 70 0 0
    endloop
  endfacet
  facet normal -0.951058 0 -0.309012
    outer loop
      vertex 4.08033 0 9.43712
      vertex 4.02219 4.9 9.61606
      vertex 4.08033 4.9 9.43712
    endloop
  endfacet
  facet normal -0.951058 -0 -0.309012
    outer loop
      vertex 4.02219 4.9 9.61606
      vertex 4.08033 0 9.43712
      vertex 4.02219 0 9.61606
    endloop
  endfacet
  facet normal -0.99452 0 -0.104544
    outer loop
      vertex 4.1 0 9.25
      vertex 4.08033 4.9 9.43712
      vertex 4.1 4.9 9.25
    endloop
  endfacet
  facet normal -0.99452 -0 -0.104544
    outer loop
      vertex 4.08033 4.9 9.43712
      vertex 4.1 0 9.25
      vertex 4.08033 0 9.43712
    endloop
  endfacet
  facet normal -0.866024 0 0.500003
    outer loop
      vertex 3.92811 0 8.72099
      vertex 4.02219 4.9 8.88394
      vertex 3.92811 4.9 8.72099
    endloop
  endfacet
  facet normal -0.866024 0 0.500003
    outer loop
      vertex 4.02219 4.9 8.88394
      vertex 3.92811 0 8.72099
      vertex 4.02219 0 8.88394
    endloop
  endfacet
  facet normal 0.74313 -0 0.669147
    outer loop
      vertex 2.47188 0 8.72099
      vertex 2.59778 4.9 8.58117
      vertex 2.47188 4.9 8.72099
    endloop
  endfacet
  facet normal 0.74313 0 0.669147
    outer loop
      vertex 2.59778 4.9 8.58117
      vertex 2.47188 0 8.72099
      vertex 2.59778 0 8.58117
    endloop
  endfacet
  facet normal 0.207816 0 -0.978168
    outer loop
      vertex 2.92188 0 10.106
      vertex 3.10592 4.9 10.1451
      vertex 3.10592 0 10.1451
    endloop
  endfacet
  facet normal 0.207816 0 -0.978168
    outer loop
      vertex 3.10592 4.9 10.1451
      vertex 2.92188 0 10.106
      vertex 2.92188 4.9 10.106
    endloop
  endfacet
  facet normal -0.866024 0 -0.500003
    outer loop
      vertex 4.02219 0 9.61606
      vertex 3.92811 4.9 9.77901
      vertex 4.02219 4.9 9.61606
    endloop
  endfacet
  facet normal -0.866024 -0 -0.500003
    outer loop
      vertex 3.92811 4.9 9.77901
      vertex 4.02219 0 9.61606
      vertex 3.92811 0 9.77901
    endloop
  endfacet
  facet normal 0.866047 0 -0.499963
    outer loop
      vertex 2.47188 0 9.77901
      vertex 2.37781 4.9 9.61606
      vertex 2.47188 4.9 9.77901
    endloop
  endfacet
  facet normal 0.866047 0 -0.499963
    outer loop
      vertex 2.37781 4.9 9.61606
      vertex 2.47188 0 9.77901
      vertex 2.37781 0 9.61606
    endloop
  endfacet
  facet normal -0.587701 0 -0.809078
    outer loop
      vertex 3.65 0 10.0294
      vertex 3.80222 4.9 9.91883
      vertex 3.80222 0 9.91883
    endloop
  endfacet
  facet normal -0.587701 0 -0.809078
    outer loop
      vertex 3.80222 4.9 9.91883
      vertex 3.65 0 10.0294
      vertex 3.65 4.9 10.0294
    endloop
  endfacet
  facet normal 0.74313 0 -0.669147
    outer loop
      vertex 2.59778 0 9.91883
      vertex 2.47188 4.9 9.77901
      vertex 2.59778 4.9 9.91883
    endloop
  endfacet
  facet normal 0.74313 0 -0.669147
    outer loop
      vertex 2.47188 4.9 9.77901
      vertex 2.59778 0 9.91883
      vertex 2.47188 0 9.77901
    endloop
  endfacet
  facet normal 0.207917 0 0.978146
    outer loop
      vertex 2.92188 4.9 8.39405
      vertex 3.10592 0 8.35493
      vertex 3.10592 4.9 8.35493
    endloop
  endfacet
  facet normal 0.207917 0 0.978146
    outer loop
      vertex 3.10592 0 8.35493
      vertex 2.92188 4.9 8.39405
      vertex 2.92188 0 8.39405
    endloop
  endfacet
  facet normal 0.406755 0 0.913537
    outer loop
      vertex 2.75 4.9 8.47058
      vertex 2.92188 0 8.39405
      vertex 2.92188 4.9 8.39405
    endloop
  endfacet
  facet normal 0.406755 0 0.913537
    outer loop
      vertex 2.92188 0 8.39405
      vertex 2.75 4.9 8.47058
      vertex 2.75 0 8.47058
    endloop
  endfacet
  facet normal -0.207816 0 -0.978168
    outer loop
      vertex 3.29408 0 10.1451
      vertex 3.47812 4.9 10.106
      vertex 3.47812 0 10.106
    endloop
  endfacet
  facet normal -0.207816 0 -0.978168
    outer loop
      vertex 3.47812 4.9 10.106
      vertex 3.29408 0 10.1451
      vertex 3.29408 4.9 10.1451
    endloop
  endfacet
  facet normal -0.99452 0 0.104544
    outer loop
      vertex 4.08033 0 9.06288
      vertex 4.1 4.9 9.25
      vertex 4.08033 4.9 9.06288
    endloop
  endfacet
  facet normal -0.99452 0 0.104544
    outer loop
      vertex 4.1 4.9 9.25
      vertex 4.08033 0 9.06288
      vertex 4.1 0 9.25
    endloop
  endfacet
  facet normal 0.866047 -0 0.499963
    outer loop
      vertex 2.37781 0 8.88394
      vertex 2.47188 4.9 8.72099
      vertex 2.37781 4.9 8.88394
    endloop
  endfacet
  facet normal 0.866047 0 0.499963
    outer loop
      vertex 2.47188 4.9 8.72099
      vertex 2.37781 0 8.88394
      vertex 2.47188 0 8.72099
    endloop
  endfacet
  facet normal -0.951058 0 0.309012
    outer loop
      vertex 4.02219 0 8.88394
      vertex 4.08033 4.9 9.06288
      vertex 4.02219 4.9 8.88394
    endloop
  endfacet
  facet normal -0.951058 0 0.309012
    outer loop
      vertex 4.08033 4.9 9.06288
      vertex 4.02219 0 8.88394
      vertex 4.08033 0 9.06288
    endloop
  endfacet
  facet normal 0 0 -1
    outer loop
      vertex 3.10592 0 10.1451
      vertex 3.29408 4.9 10.1451
      vertex 3.29408 0 10.1451
    endloop
  endfacet
  facet normal -0 0 -1
    outer loop
      vertex 3.29408 4.9 10.1451
      vertex 3.10592 0 10.1451
      vertex 3.10592 4.9 10.1451
    endloop
  endfacet
  facet normal 0.99452 0 -0.104544
    outer loop
      vertex 2.31967 0 9.43712
      vertex 2.3 4.9 9.25
      vertex 2.31967 4.9 9.43712
    endloop
  endfacet
  facet normal 0.99452 0 -0.104544
    outer loop
      vertex 2.3 4.9 9.25
      vertex 2.31967 0 9.43712
      vertex 2.3 0 9.25
    endloop
  endfacet
  facet normal -0.407065 0 -0.913399
    outer loop
      vertex 3.47812 0 10.106
      vertex 3.65 4.9 10.0294
      vertex 3.65 0 10.0294
    endloop
  endfacet
  facet normal -0.407065 0 -0.913399
    outer loop
      vertex 3.65 4.9 10.0294
      vertex 3.47812 0 10.106
      vertex 3.47812 4.9 10.106
    endloop
  endfacet
  facet normal 0.587701 0 -0.809078
    outer loop
      vertex 2.59778 0 9.91883
      vertex 2.75 4.9 10.0294
      vertex 2.75 0 10.0294
    endloop
  endfacet
  facet normal 0.587701 0 -0.809078
    outer loop
      vertex 2.75 4.9 10.0294
      vertex 2.59778 0 9.91883
      vertex 2.59778 4.9 9.91883
    endloop
  endfacet
  facet normal -0.743157 0 0.669117
    outer loop
      vertex 3.80222 0 8.58117
      vertex 3.92811 4.9 8.72099
      vertex 3.80222 4.9 8.58117
    endloop
  endfacet
  facet normal -0.743157 0 0.669117
    outer loop
      vertex 3.92811 4.9 8.72099
      vertex 3.80222 0 8.58117
      vertex 3.92811 0 8.72099
    endloop
  endfacet
  facet normal -0.406755 0 0.913537
    outer loop
      vertex 3.47812 4.9 8.39405
      vertex 3.65 0 8.47058
      vertex 3.65 4.9 8.47058
    endloop
  endfacet
  facet normal -0.406755 0 0.913537
    outer loop
      vertex 3.65 0 8.47058
      vertex 3.47812 4.9 8.39405
      vertex 3.47812 0 8.39405
    endloop
  endfacet
  facet normal 0.407065 0 -0.913399
    outer loop
      vertex 2.75 0 10.0294
      vertex 2.92188 4.9 10.106
      vertex 2.92188 0 10.106
    endloop
  endfacet
  facet normal 0.407065 0 -0.913399
    outer loop
      vertex 2.92188 4.9 10.106
      vertex 2.75 0 10.0294
      vertex 2.75 4.9 10.0294
    endloop
  endfacet
  facet normal -0.743157 0 -0.669117
    outer loop
      vertex 3.92811 0 9.77901
      vertex 3.80222 4.9 9.91883
      vertex 3.92811 4.9 9.77901
    endloop
  endfacet
  facet normal -0.743157 -0 -0.669117
    outer loop
      vertex 3.80222 4.9 9.91883
      vertex 3.92811 0 9.77901
      vertex 3.80222 0 9.91883
    endloop
  endfacet
  facet normal 0.99452 -0 0.104544
    outer loop
      vertex 2.3 0 9.25
      vertex 2.31967 4.9 9.06288
      vertex 2.3 4.9 9.25
    endloop
  endfacet
  facet normal 0.99452 0 0.104544
    outer loop
      vertex 2.31967 4.9 9.06288
      vertex 2.3 0 9.25
      vertex 2.31967 0 9.06288
    endloop
  endfacet
  facet normal 0.951058 -0 0.309012
    outer loop
      vertex 2.31967 0 9.06288
      vertex 2.37781 4.9 8.88394
      vertex 2.31967 4.9 9.06288
    endloop
  endfacet
  facet normal 0.951058 0 0.309012
    outer loop
      vertex 2.37781 4.9 8.88394
      vertex 2.31967 0 9.06288
      vertex 2.37781 0 8.88394
    endloop
  endfacet
  facet normal -0.207917 0 0.978146
    outer loop
      vertex 3.29408 4.9 8.35493
      vertex 3.47812 0 8.39405
      vertex 3.47812 4.9 8.39405
    endloop
  endfacet
  facet normal -0.207917 0 0.978146
    outer loop
      vertex 3.47812 0 8.39405
      vertex 3.29408 4.9 8.35493
      vertex 3.29408 0 8.35493
    endloop
  endfacet
  facet normal 0 -1 0
    outer loop
      vertex 2.92188 4.9 10.106
      vertex 3.29408 4.9 10.1451
      vertex 3.10592 4.9 10.1451
    endloop
  endfacet
  facet normal 0 -1 0
    outer loop
      vertex 2.92188 4.9 10.106
      vertex 3.47812 4.9 10.106
      vertex 3.29408 4.9 10.1451
    endloop
  endfacet
  facet normal 0 -1 0
    outer loop
      vertex 2.75 4.9 10.0294
      vertex 3.47812 4.9 10.106
      vertex 2.92188 4.9 10.106
    endloop
  endfacet
  facet normal 0 -1 0
    outer loop
      vertex 2.75 4.9 10.0294
      vertex 3.65 4.9 10.0294
      vertex 3.47812 4.9 10.106
    endloop
  endfacet
  facet normal 0 -1 0
    outer loop
      vertex 2.59778 4.9 9.91883
      vertex 3.65 4.9 10.0294
      vertex 2.75 4.9 10.0294
    endloop
  endfacet
  facet normal 0 -1 0
    outer loop
      vertex 2.59778 4.9 9.91883
      vertex 3.80222 4.9 9.91883
      vertex 3.65 4.9 10.0294
    endloop
  endfacet
  facet normal 0 -1 0
    outer loop
      vertex 2.47188 4.9 9.77901
      vertex 3.80222 4.9 9.91883
      vertex 2.59778 4.9 9.91883
    endloop
  endfacet
  facet normal 0 -1 0
    outer loop
      vertex 2.47188 4.9 9.77901
      vertex 3.92811 4.9 9.77901
      vertex 3.80222 4.9 9.91883
    endloop
  endfacet
  facet normal 0 -1 0
    outer loop
      vertex 2.37781 4.9 9.61606
      vertex 3.92811 4.9 9.77901
      vertex 2.47188 4.9 9.77901
    endloop
  endfacet
  facet normal 0 -1 0
    outer loop
      vertex 2.37781 4.9 9.61606
      vertex 4.02219 4.9 9.61606
      vertex 3.92811 4.9 9.77901
    endloop
  endfacet
  facet normal 0 -1 0
    outer loop
      vertex 2.31967 4.9 9.43712
      vertex 4.02219 4.9 9.61606
      vertex 2.37781 4.9 9.61606
    endloop
  endfacet
  facet normal 0 -1 0
    outer loop
      vertex 2.31967 4.9 9.43712
      vertex 4.08033 4.9 9.43712
      vertex 4.02219 4.9 9.61606
    endloop
  endfacet
  facet normal 0 -1 0
    outer loop
      vertex 2.3 4.9 9.25
      vertex 4.08033 4.9 9.43712
      vertex 2.31967 4.9 9.43712
    endloop
  endfacet
  facet normal 0 -1 0
    outer loop
      vertex 2.3 4.9 9.25
      vertex 4.1 4.9 9.25
      vertex 4.08033 4.9 9.43712
    endloop
  endfacet
  facet normal 0 -1 0
    outer loop
      vertex 2.31967 4.9 9.06288
      vertex 4.1 4.9 9.25
      vertex 2.3 4.9 9.25
    endloop
  endfacet
  facet normal 0 -1 0
    outer loop
      vertex 2.31967 4.9 9.06288
      vertex 4.08033 4.9 9.06288
      vertex 4.1 4.9 9.25
    endloop
  endfacet
  facet normal 0 -1 0
    outer loop
      vertex 2.37781 4.9 8.88394
      vertex 4.08033 4.9 9.06288
      vertex 2.31967 4.9 9.06288
    endloop
  endfacet
  facet normal 0 -1 0
    outer loop
      vertex 2.37781 4.9 8.88394
      vertex 4.02219 4.9 8.88394
      vertex 4.08033 4.9 9.06288
    endloop
  endfacet
  facet normal 0 -1 0
    outer loop
      vertex 2.47188 4.9 8.72099
      vertex 4.02219 4.9 8.88394
      vertex 2.37781 4.9 8.88394
    endloop
  endfacet
  facet normal 0 -1 0
    outer loop
      vertex 2.47188 4.9 8.72099
      vertex 3.92811 4.9 8.72099
      vertex 4.02219 4.9 8.88394
    endloop
  endfacet
  facet normal 0 -1 0
    outer loop
      vertex 2.59778 4.9 8.58117
      vertex 3.92811 4.9 8.72099
      vertex 2.47188 4.9 8.72099
    endloop
  endfacet
  facet normal 0 -1 0
    outer loop
      vertex 2.59778 4.9 8.58117
      vertex 3.80222 4.9 8.58117
      vertex 3.92811 4.9 8.72099
    endloop
  endfacet
  facet normal 0 -1 0
    outer loop
      vertex 2.75 4.9 8.47058
      vertex 3.80222 4.9 8.58117
      vertex 2.59778 4.9 8.58117
    endloop
  endfacet
  facet normal 0 -1 0
    outer loop
      vertex 2.75 4.9 8.47058
      vertex 3.65 4.9 8.47058
      vertex 3.80222 4.9 8.58117
    endloop
  endfacet
  facet normal 0 -1 0
    outer loop
      vertex 2.92188 4.9 8.39405
      vertex 3.65 4.9 8.47058
      vertex 2.75 4.9 8.47058
    endloop
  endfacet
  facet normal 0 -1 0
    outer loop
      vertex 2.92188 4.9 8.39405
      vertex 3.47812 4.9 8.39405
      vertex 3.65 4.9 8.47058
    endloop
  endfacet
  facet normal 0 -1 0
    outer loop
      vertex 3.10592 4.9 8.35493
      vertex 3.47812 4.9 8.39405
      vertex 2.92188 4.9 8.39405
    endloop
  endfacet
  facet normal 0 -1 0
    outer loop
      vertex 3.47812 4.9 8.39405
      vertex 3.10592 4.9 8.35493
      vertex 3.29408 4.9 8.35493
    endloop
  endfacet
  facet normal -0 0 1
    outer loop
      vertex 3.10592 4.9 8.35493
      vertex 3.29408 0 8.35493
      vertex 3.29408 4.9 8.35493
    endloop
  endfacet
  facet normal 0 0 1
    outer loop
      vertex 3.29408 0 8.35493
      vertex 3.10592 4.9 8.35493
      vertex 3.10592 0 8.35493
    endloop
  endfacet
  facet normal 0.951058 0 -0.309012
    outer loop
      vertex 2.37781 0 9.61606
      vertex 2.31967 4.9 9.43712
      vertex 2.37781 4.9 9.61606
    endloop
  endfacet
  facet normal 0.951058 0 -0.309012
    outer loop
      vertex 2.31967 4.9 9.43712
      vertex 2.37781 0 9.61606
      vertex 2.31967 0 9.43712
    endloop
  endfacet
  facet normal 0.58777 0 0.809028
    outer loop
      vertex 2.59778 4.9 8.58117
      vertex 2.75 0 8.47058
      vertex 2.75 4.9 8.47058
    endloop
  endfacet
  facet normal 0.58777 0 0.809028
    outer loop
      vertex 2.75 0 8.47058
      vertex 2.59778 4.9 8.58117
      vertex 2.59778 0 8.58117
    endloop
  endfacet
  facet normal -0.58777 0 0.809028
    outer loop
      vertex 3.65 4.9 8.47058
      vertex 3.80222 0 8.58117
      vertex 3.80222 4.9 8.58117
    endloop
  endfacet
  facet normal -0.58777 0 0.809028
    outer loop
      vertex 3.80222 0 8.58117
      vertex 3.65 4.9 8.47058
      vertex 3.65 0 8.47058
    endloop
  endfacet
  facet normal -0.994504 0 -0.104701
    outer loop
      vertex 32.7 0 9.25
      vertex 32.6803 4.9 9.43712
      vertex 32.7 4.9 9.25
    endloop
  endfacet
  facet normal -0.994504 -0 -0.104701
    outer loop
      vertex 32.6803 4.9 9.43712
      vertex 32.7 0 9.25
      vertex 32.6803 0 9.43712
    endloop
  endfacet
  facet normal -0.406715 0 0.913555
    outer loop
      vertex 32.0781 4.9 8.39405
      vertex 32.25 0 8.47058
      vertex 32.25 4.9 8.47058
    endloop
  endfacet
  facet normal -0.406715 0 0.913555
    outer loop
      vertex 32.25 0 8.47058
      vertex 32.0781 4.9 8.39405
      vertex 32.0781 0 8.39405
    endloop
  endfacet
  facet normal 0.74313 0 -0.669147
    outer loop
      vertex 31.1978 0 9.91883
      vertex 31.0719 4.9 9.77901
      vertex 31.1978 4.9 9.91883
    endloop
  endfacet
  facet normal 0.74313 0 -0.669147
    outer loop
      vertex 31.0719 4.9 9.77901
      vertex 31.1978 0 9.91883
      vertex 31.0719 0 9.77901
    endloop
  endfacet
  facet normal 0.20796 0 0.978137
    outer loop
      vertex 31.5219 4.9 8.39405
      vertex 31.7059 0 8.35493
      vertex 31.7059 4.9 8.35493
    endloop
  endfacet
  facet normal 0.20796 0 0.978137
    outer loop
      vertex 31.7059 0 8.35493
      vertex 31.5219 4.9 8.39405
      vertex 31.5219 0 8.39405
    endloop
  endfacet
  facet normal -0.865978 0 -0.500083
    outer loop
      vertex 32.6222 0 9.61606
      vertex 32.5281 4.9 9.77901
      vertex 32.6222 4.9 9.61606
    endloop
  endfacet
  facet normal -0.865978 -0 -0.500083
    outer loop
      vertex 32.5281 4.9 9.77901
      vertex 32.6222 0 9.61606
      vertex 32.5281 0 9.77901
    endloop
  endfacet
  facet normal 0.407026 0 -0.913417
    outer loop
      vertex 31.35 0 10.0294
      vertex 31.5219 4.9 10.106
      vertex 31.5219 0 10.106
    endloop
  endfacet
  facet normal 0.407026 0 -0.913417
    outer loop
      vertex 31.5219 4.9 10.106
      vertex 31.35 0 10.0294
      vertex 31.35 4.9 10.0294
    endloop
  endfacet
  facet normal -0.951121 0 0.308819
    outer loop
      vertex 32.6222 0 8.88394
      vertex 32.6803 4.9 9.06288
      vertex 32.6222 4.9 8.88394
    endloop
  endfacet
  facet normal -0.951121 0 0.308819
    outer loop
      vertex 32.6803 4.9 9.06288
      vertex 32.6222 0 8.88394
      vertex 32.6803 0 9.06288
    endloop
  endfacet
  facet normal -0.74313 0 -0.669147
    outer loop
      vertex 32.5281 0 9.77901
      vertex 32.4022 4.9 9.91883
      vertex 32.5281 4.9 9.77901
    endloop
  endfacet
  facet normal -0.74313 -0 -0.669147
    outer loop
      vertex 32.4022 4.9 9.91883
      vertex 32.5281 0 9.77901
      vertex 32.4022 0 9.91883
    endloop
  endfacet
  facet normal 0.207859 0 -0.978159
    outer loop
      vertex 31.5219 0 10.106
      vertex 31.7059 4.9 10.1451
      vertex 31.7059 0 10.1451
    endloop
  endfacet
  facet normal 0.207859 0 -0.978159
    outer loop
      vertex 31.7059 4.9 10.1451
      vertex 31.5219 0 10.106
      vertex 31.5219 4.9 10.106
    endloop
  endfacet
  facet normal 0 -1 0
    outer loop
      vertex 31.5219 4.9 10.106
      vertex 31.8941 4.9 10.1451
      vertex 31.7059 4.9 10.1451
    endloop
  endfacet
  facet normal 0 -1 0
    outer loop
      vertex 31.5219 4.9 10.106
      vertex 32.0781 4.9 10.106
      vertex 31.8941 4.9 10.1451
    endloop
  endfacet
  facet normal 0 -1 0
    outer loop
      vertex 31.35 4.9 10.0294
      vertex 32.0781 4.9 10.106
      vertex 31.5219 4.9 10.106
    endloop
  endfacet
  facet normal 0 -1 0
    outer loop
      vertex 31.35 4.9 10.0294
      vertex 32.25 4.9 10.0294
      vertex 32.0781 4.9 10.106
    endloop
  endfacet
  facet normal 0 -1 0
    outer loop
      vertex 31.1978 4.9 9.91883
      vertex 32.25 4.9 10.0294
      vertex 31.35 4.9 10.0294
    endloop
  endfacet
  facet normal 0 -1 0
    outer loop
      vertex 31.1978 4.9 9.91883
      vertex 32.4022 4.9 9.91883
      vertex 32.25 4.9 10.0294
    endloop
  endfacet
  facet normal 0 -1 0
    outer loop
      vertex 31.0719 4.9 9.77901
      vertex 32.4022 4.9 9.91883
      vertex 31.1978 4.9 9.91883
    endloop
  endfacet
  facet normal 0 -1 0
    outer loop
      vertex 31.0719 4.9 9.77901
      vertex 32.5281 4.9 9.77901
      vertex 32.4022 4.9 9.91883
    endloop
  endfacet
  facet normal 0 -1 0
    outer loop
      vertex 30.9778 4.9 9.61606
      vertex 32.5281 4.9 9.77901
      vertex 31.0719 4.9 9.77901
    endloop
  endfacet
  facet normal 0 -1 0
    outer loop
      vertex 30.9778 4.9 9.61606
      vertex 32.6222 4.9 9.61606
      vertex 32.5281 4.9 9.77901
    endloop
  endfacet
  facet normal 0 -1 0
    outer loop
      vertex 30.9197 4.9 9.43712
      vertex 32.6222 4.9 9.61606
      vertex 30.9778 4.9 9.61606
    endloop
  endfacet
  facet normal 0 -1 0
    outer loop
      vertex 30.9197 4.9 9.43712
      vertex 32.6803 4.9 9.43712
      vertex 32.6222 4.9 9.61606
    endloop
  endfacet
  facet normal 0 -1 0
    outer loop
      vertex 30.9 4.9 9.25
      vertex 32.6803 4.9 9.43712
      vertex 30.9197 4.9 9.43712
    endloop
  endfacet
  facet normal 0 -1 0
    outer loop
      vertex 30.9 4.9 9.25
      vertex 32.7 4.9 9.25
      vertex 32.6803 4.9 9.43712
    endloop
  endfacet
  facet normal 0 -1 0
    outer loop
      vertex 30.9197 4.9 9.06288
      vertex 32.7 4.9 9.25
      vertex 30.9 4.9 9.25
    endloop
  endfacet
  facet normal 0 -1 0
    outer loop
      vertex 30.9197 4.9 9.06288
      vertex 32.6803 4.9 9.06288
      vertex 32.7 4.9 9.25
    endloop
  endfacet
  facet normal 0 -1 0
    outer loop
      vertex 30.9778 4.9 8.88394
      vertex 32.6803 4.9 9.06288
      vertex 30.9197 4.9 9.06288
    endloop
  endfacet
  facet normal 0 -1 0
    outer loop
      vertex 30.9778 4.9 8.88394
      vertex 32.6222 4.9 8.88394
      vertex 32.6803 4.9 9.06288
    endloop
  endfacet
  facet normal 0 -1 0
    outer loop
      vertex 31.0719 4.9 8.72099
      vertex 32.6222 4.9 8.88394
      vertex 30.9778 4.9 8.88394
    endloop
  endfacet
  facet normal 0 -1 0
    outer loop
      vertex 31.0719 4.9 8.72099
      vertex 32.5281 4.9 8.72099
      vertex 32.6222 4.9 8.88394
    endloop
  endfacet
  facet normal 0 -1 0
    outer loop
      vertex 31.1978 4.9 8.58117
      vertex 32.5281 4.9 8.72099
      vertex 31.0719 4.9 8.72099
    endloop
  endfacet
  facet normal 0 -1 0
    outer loop
      vertex 31.1978 4.9 8.58117
      vertex 32.4022 4.9 8.58117
      vertex 32.5281 4.9 8.72099
    endloop
  endfacet
  facet normal 0 -1 0
    outer loop
      vertex 31.35 4.9 8.47058
      vertex 32.4022 4.9 8.58117
      vertex 31.1978 4.9 8.58117
    endloop
  endfacet
  facet normal 0 -1 0
    outer loop
      vertex 31.35 4.9 8.47058
      vertex 32.25 4.9 8.47058
      vertex 32.4022 4.9 8.58117
    endloop
  endfacet
  facet normal 0 -1 0
    outer loop
      vertex 31.5219 4.9 8.39405
      vertex 32.25 4.9 8.47058
      vertex 31.35 4.9 8.47058
    endloop
  endfacet
  facet normal 0 -1 0
    outer loop
      vertex 31.5219 4.9 8.39405
      vertex 32.0781 4.9 8.39405
      vertex 32.25 4.9 8.47058
    endloop
  endfacet
  facet normal 0 -1 0
    outer loop
      vertex 31.7059 4.9 8.35493
      vertex 32.0781 4.9 8.39405
      vertex 31.5219 4.9 8.39405
    endloop
  endfacet
  facet normal 0 -1 0
    outer loop
      vertex 32.0781 4.9 8.39405
      vertex 31.7059 4.9 8.35493
      vertex 31.8941 4.9 8.35493
    endloop
  endfacet
  facet normal 0.951121 -0 0.308819
    outer loop
      vertex 30.9197 0 9.06288
      vertex 30.9778 4.9 8.88394
      vertex 30.9197 4.9 9.06288
    endloop
  endfacet
  facet normal 0.951121 0 0.308819
    outer loop
      vertex 30.9778 4.9 8.88394
      vertex 30.9197 0 9.06288
      vertex 30.9778 0 8.88394
    endloop
  endfacet
  facet normal -0.207859 0 -0.978159
    outer loop
      vertex 31.8941 0 10.1451
      vertex 32.0781 4.9 10.106
      vertex 32.0781 0 10.106
    endloop
  endfacet
  facet normal -0.207859 0 -0.978159
    outer loop
      vertex 32.0781 4.9 10.106
      vertex 31.8941 0 10.1451
      vertex 31.8941 4.9 10.1451
    endloop
  endfacet
  facet normal -0.587821 0 0.808991
    outer loop
      vertex 32.25 4.9 8.47058
      vertex 32.4022 0 8.58117
      vertex 32.4022 4.9 8.58117
    endloop
  endfacet
  facet normal -0.587821 0 0.808991
    outer loop
      vertex 32.4022 0 8.58117
      vertex 32.25 4.9 8.47058
      vertex 32.25 0 8.47058
    endloop
  endfacet
  facet normal 0.406715 0 0.913555
    outer loop
      vertex 31.35 4.9 8.47058
      vertex 31.5219 0 8.39405
      vertex 31.5219 4.9 8.39405
    endloop
  endfacet
  facet normal 0.406715 0 0.913555
    outer loop
      vertex 31.5219 0 8.39405
      vertex 31.35 4.9 8.47058
      vertex 31.35 0 8.47058
    endloop
  endfacet
  facet normal -0.994504 0 0.104701
    outer loop
      vertex 32.6803 0 9.06288
      vertex 32.7 4.9 9.25
      vertex 32.6803 4.9 9.06288
    endloop
  endfacet
  facet normal -0.994504 0 0.104701
    outer loop
      vertex 32.7 4.9 9.25
      vertex 32.6803 0 9.06288
      vertex 32.7 0 9.25
    endloop
  endfacet
  facet normal 0.994504 0 -0.104701
    outer loop
      vertex 30.9197 0 9.43712
      vertex 30.9 4.9 9.25
      vertex 30.9197 4.9 9.43712
    endloop
  endfacet
  facet normal 0.994504 0 -0.104701
    outer loop
      vertex 30.9 4.9 9.25
      vertex 30.9197 0 9.43712
      vertex 30.9 0 9.25
    endloop
  endfacet
  facet normal 0.951121 0 -0.308819
    outer loop
      vertex 30.9778 0 9.61606
      vertex 30.9197 4.9 9.43712
      vertex 30.9778 4.9 9.61606
    endloop
  endfacet
  facet normal 0.951121 0 -0.308819
    outer loop
      vertex 30.9197 4.9 9.43712
      vertex 30.9778 0 9.61606
      vertex 30.9197 0 9.43712
    endloop
  endfacet
  facet normal -0.951121 0 -0.308819
    outer loop
      vertex 32.6803 0 9.43712
      vertex 32.6222 4.9 9.61606
      vertex 32.6803 4.9 9.43712
    endloop
  endfacet
  facet normal -0.951121 -0 -0.308819
    outer loop
      vertex 32.6222 4.9 9.61606
      vertex 32.6803 0 9.43712
      vertex 32.6222 0 9.61606
    endloop
  endfacet
  facet normal -0.20796 0 0.978137
    outer loop
      vertex 31.8941 4.9 8.35493
      vertex 32.0781 0 8.39405
      vertex 32.0781 4.9 8.39405
    endloop
  endfacet
  facet normal -0.20796 0 0.978137
    outer loop
      vertex 32.0781 0 8.39405
      vertex 31.8941 4.9 8.35493
      vertex 31.8941 0 8.35493
    endloop
  endfacet
  facet normal -0.407026 0 -0.913417
    outer loop
      vertex 32.0781 0 10.106
      vertex 32.25 4.9 10.0294
      vertex 32.25 0 10.0294
    endloop
  endfacet
  facet normal -0.407026 0 -0.913417
    outer loop
      vertex 32.25 4.9 10.0294
      vertex 32.0781 0 10.106
      vertex 32.0781 4.9 10.106
    endloop
  endfacet
  facet normal 0.865978 -0 0.500083
    outer loop
      vertex 30.9778 0 8.88394
      vertex 31.0719 4.9 8.72099
      vertex 30.9778 4.9 8.88394
    endloop
  endfacet
  facet normal 0.865978 0 0.500083
    outer loop
      vertex 31.0719 4.9 8.72099
      vertex 30.9778 0 8.88394
      vertex 31.0719 0 8.72099
    endloop
  endfacet
  facet normal -0.865978 0 0.500083
    outer loop
      vertex 32.5281 0 8.72099
      vertex 32.6222 4.9 8.88394
      vertex 32.5281 4.9 8.72099
    endloop
  endfacet
  facet normal -0.865978 0 0.500083
    outer loop
      vertex 32.6222 4.9 8.88394
      vertex 32.5281 0 8.72099
      vertex 32.6222 0 8.88394
    endloop
  endfacet
  facet normal -0.587751 0 -0.809042
    outer loop
      vertex 32.25 0 10.0294
      vertex 32.4022 4.9 9.91883
      vertex 32.4022 0 9.91883
    endloop
  endfacet
  facet normal -0.587751 0 -0.809042
    outer loop
      vertex 32.4022 4.9 9.91883
      vertex 32.25 0 10.0294
      vertex 32.25 4.9 10.0294
    endloop
  endfacet
  facet normal 0.994504 -0 0.104701
    outer loop
      vertex 30.9 0 9.25
      vertex 30.9197 4.9 9.06288
      vertex 30.9 4.9 9.25
    endloop
  endfacet
  facet normal 0.994504 0 0.104701
    outer loop
      vertex 30.9197 4.9 9.06288
      vertex 30.9 0 9.25
      vertex 30.9197 0 9.06288
    endloop
  endfacet
  facet normal 0 0 -1
    outer loop
      vertex 31.7059 0 10.1451
      vertex 31.8941 4.9 10.1451
      vertex 31.8941 0 10.1451
    endloop
  endfacet
  facet normal -0 0 -1
    outer loop
      vertex 31.8941 4.9 10.1451
      vertex 31.7059 0 10.1451
      vertex 31.7059 4.9 10.1451
    endloop
  endfacet
  facet normal -0.74313 0 0.669147
    outer loop
      vertex 32.4022 0 8.58117
      vertex 32.5281 4.9 8.72099
      vertex 32.4022 4.9 8.58117
    endloop
  endfacet
  facet normal -0.74313 0 0.669147
    outer loop
      vertex 32.5281 4.9 8.72099
      vertex 32.4022 0 8.58117
      vertex 32.5281 0 8.72099
    endloop
  endfacet
  facet normal 0.865978 0 -0.500083
    outer loop
      vertex 31.0719 0 9.77901
      vertex 30.9778 4.9 9.61606
      vertex 31.0719 4.9 9.77901
    endloop
  endfacet
  facet normal 0.865978 0 -0.500083
    outer loop
      vertex 30.9778 4.9 9.61606
      vertex 31.0719 0 9.77901
      vertex 30.9778 0 9.61606
    endloop
  endfacet
  facet normal 0.74313 -0 0.669147
    outer loop
      vertex 31.0719 0 8.72099
      vertex 31.1978 4.9 8.58117
      vertex 31.0719 4.9 8.72099
    endloop
  endfacet
  facet normal 0.74313 0 0.669147
    outer loop
      vertex 31.1978 4.9 8.58117
      vertex 31.0719 0 8.72099
      vertex 31.1978 0 8.58117
    endloop
  endfacet
  facet normal 0.587751 0 -0.809042
    outer loop
      vertex 31.1978 0 9.91883
      vertex 31.35 4.9 10.0294
      vertex 31.35 0 10.0294
    endloop
  endfacet
  facet normal 0.587751 0 -0.809042
    outer loop
      vertex 31.35 4.9 10.0294
      vertex 31.1978 0 9.91883
      vertex 31.1978 4.9 9.91883
    endloop
  endfacet
  facet normal 0.587821 0 0.808991
    outer loop
      vertex 31.1978 4.9 8.58117
      vertex 31.35 0 8.47058
      vertex 31.35 4.9 8.47058
    endloop
  endfacet
  facet normal 0.587821 0 0.808991
    outer loop
      vertex 31.35 0 8.47058
      vertex 31.1978 4.9 8.58117
      vertex 31.1978 0 8.58117
    endloop
  endfacet
  facet normal -0 0 1
    outer loop
      vertex 31.7059 4.9 8.35493
      vertex 31.8941 0 8.35493
      vertex 31.8941 4.9 8.35493
    endloop
  endfacet
  facet normal 0 0 1
    outer loop
      vertex 31.8941 0 8.35493
      vertex 31.7059 4.9 8.35493
      vertex 31.7059 0 8.35493
    endloop
  endfacet
  facet normal 0.994524 -0.104506 0
    outer loop
      vertex 39.85 10 3
      vertex 39.9079 10.551 0
      vertex 39.9079 10.551 3
    endloop
  endfacet
  facet normal 0.994524 -0.104506 0
    outer loop
      vertex 39.9079 10.551 0
      vertex 39.85 10 3
      vertex 39.85 10 0
    endloop
  endfacet
  facet normal 0 -1 0
    outer loop
      vertex 42.223 12.6355 0
      vertex 62.777 12.6355 3
      vertex 42.223 12.6355 3
    endloop
  endfacet
  facet normal 0 -1 -0
    outer loop
      vertex 62.777 12.6355 3
      vertex 42.223 12.6355 0
      vertex 62.777 12.6355 0
    endloop
  endfacet
  facet normal -0.994524 -0.104506 0
    outer loop
      vertex 65.15 10 0
      vertex 65.0921 10.551 3
      vertex 65.0921 10.551 0
    endloop
  endfacet
  facet normal -0.994524 -0.104506 0
    outer loop
      vertex 65.0921 10.551 3
      vertex 65.15 10 0
      vertex 65.15 10 3
    endloop
  endfacet
  facet normal 0.207939 -0.978142 0
    outer loop
      vertex 41.6811 12.5203 0
      vertex 42.223 12.6355 3
      vertex 41.6811 12.5203 3
    endloop
  endfacet
  facet normal 0.207939 -0.978142 0
    outer loop
      vertex 42.223 12.6355 3
      vertex 41.6811 12.5203 0
      vertex 42.223 12.6355 0
    endloop
  endfacet
  facet normal -0.58786 -0.808962 0
    outer loop
      vertex 63.825 12.295 0
      vertex 64.2732 11.9693 3
      vertex 63.825 12.295 3
    endloop
  endfacet
  facet normal -0.58786 -0.808962 -0
    outer loop
      vertex 64.2732 11.9693 3
      vertex 63.825 12.295 0
      vertex 64.2732 11.9693 0
    endloop
  endfacet
  facet normal 0 1 -0
    outer loop
      vertex 62.777 7.36452 0
      vertex 42.223 7.36452 3
      vertex 62.777 7.36452 3
    endloop
  endfacet
  facet normal 0 1 0
    outer loop
      vertex 42.223 7.36452 3
      vertex 62.777 7.36452 0
      vertex 42.223 7.36452 0
    endloop
  endfacet
  facet normal -0.207939 -0.978142 0
    outer loop
      vertex 62.777 12.6355 0
      vertex 63.3189 12.5203 3
      vertex 62.777 12.6355 3
    endloop
  endfacet
  facet normal -0.207939 -0.978142 -0
    outer loop
      vertex 63.3189 12.5203 3
      vertex 62.777 12.6355 0
      vertex 63.3189 12.5203 0
    endloop
  endfacet
  facet normal 0.207904 0.978149 -0
    outer loop
      vertex 42.223 7.36452 0
      vertex 41.6811 7.4797 3
      vertex 42.223 7.36452 3
    endloop
  endfacet
  facet normal 0.207904 0.978149 0
    outer loop
      vertex 41.6811 7.4797 3
      vertex 42.223 7.36452 0
      vertex 41.6811 7.4797 0
    endloop
  endfacet
  facet normal 0.406691 -0.913566 0
    outer loop
      vertex 41.175 12.295 0
      vertex 41.6811 12.5203 3
      vertex 41.175 12.295 3
    endloop
  endfacet
  facet normal 0.406691 -0.913566 0
    outer loop
      vertex 41.6811 12.5203 3
      vertex 41.175 12.295 0
      vertex 41.6811 12.5203 0
    endloop
  endfacet
  facet normal -0.406736 0.913546 0
    outer loop
      vertex 63.825 7.70503 0
      vertex 63.3189 7.4797 3
      vertex 63.825 7.70503 3
    endloop
  endfacet
  facet normal -0.406736 0.913546 0
    outer loop
      vertex 63.3189 7.4797 3
      vertex 63.825 7.70503 0
      vertex 63.3189 7.4797 0
    endloop
  endfacet
  facet normal -0.58779 0.809014 0
    outer loop
      vertex 64.2732 8.03067 0
      vertex 63.825 7.70503 3
      vertex 64.2732 8.03067 3
    endloop
  endfacet
  facet normal -0.58779 0.809014 0
    outer loop
      vertex 63.825 7.70503 3
      vertex 64.2732 8.03067 0
      vertex 63.825 7.70503 0
    endloop
  endfacet
  facet normal -0.743142 -0.669134 0
    outer loop
      vertex 64.6439 11.5576 0
      vertex 64.2732 11.9693 3
      vertex 64.2732 11.9693 0
    endloop
  endfacet
  facet normal -0.743142 -0.669134 0
    outer loop
      vertex 64.2732 11.9693 3
      vertex 64.6439 11.5576 0
      vertex 64.6439 11.5576 3
    endloop
  endfacet
  facet normal -0.951057 -0.309017 0
    outer loop
      vertex 65.0921 10.551 0
      vertex 64.9209 11.0779 3
      vertex 64.9209 11.0779 0
    endloop
  endfacet
  facet normal -0.951057 -0.309017 0
    outer loop
      vertex 64.9209 11.0779 3
      vertex 65.0921 10.551 0
      vertex 65.0921 10.551 3
    endloop
  endfacet
  facet normal -0.866026 0.499998 0
    outer loop
      vertex 64.6439 8.44237 0
      vertex 64.9209 8.92215 3
      vertex 64.9209 8.92215 0
    endloop
  endfacet
  facet normal -0.866026 0.499998 0
    outer loop
      vertex 64.9209 8.92215 3
      vertex 64.6439 8.44237 0
      vertex 64.6439 8.44237 3
    endloop
  endfacet
  facet normal 0.866026 0.499998 0
    outer loop
      vertex 40.3561 8.44237 3
      vertex 40.0791 8.92215 0
      vertex 40.0791 8.92215 3
    endloop
  endfacet
  facet normal 0.866026 0.499998 0
    outer loop
      vertex 40.0791 8.92215 0
      vertex 40.3561 8.44237 3
      vertex 40.3561 8.44237 0
    endloop
  endfacet
  facet normal 0.58786 -0.808962 0
    outer loop
      vertex 40.7268 11.9693 0
      vertex 41.175 12.295 3
      vertex 40.7268 11.9693 3
    endloop
  endfacet
  facet normal 0.58786 -0.808962 0
    outer loop
      vertex 41.175 12.295 3
      vertex 40.7268 11.9693 0
      vertex 41.175 12.295 0
    endloop
  endfacet
  facet normal 0.994524 0.104512 0
    outer loop
      vertex 39.9079 9.44903 3
      vertex 39.85 10 0
      vertex 39.85 10 3
    endloop
  endfacet
  facet normal 0.994524 0.104512 0
    outer loop
      vertex 39.85 10 0
      vertex 39.9079 9.44903 3
      vertex 39.9079 9.44903 0
    endloop
  endfacet
  facet normal -0.207904 0.978149 0
    outer loop
      vertex 63.3189 7.4797 0
      vertex 62.777 7.36452 3
      vertex 63.3189 7.4797 3
    endloop
  endfacet
  facet normal -0.207904 0.978149 0
    outer loop
      vertex 62.777 7.36452 3
      vertex 63.3189 7.4797 0
      vertex 62.777 7.36452 0
    endloop
  endfacet
  facet normal -0.406691 -0.913566 0
    outer loop
      vertex 63.3189 12.5203 0
      vertex 63.825 12.295 3
      vertex 63.3189 12.5203 3
    endloop
  endfacet
  facet normal -0.406691 -0.913566 -0
    outer loop
      vertex 63.825 12.295 3
      vertex 63.3189 12.5203 0
      vertex 63.825 12.295 0
    endloop
  endfacet
  facet normal 0.743142 -0.669134 0
    outer loop
      vertex 40.3561 11.5576 3
      vertex 40.7268 11.9693 0
      vertex 40.7268 11.9693 3
    endloop
  endfacet
  facet normal 0.743142 -0.669134 0
    outer loop
      vertex 40.7268 11.9693 0
      vertex 40.3561 11.5576 3
      vertex 40.3561 11.5576 0
    endloop
  endfacet
  facet normal 0.406736 0.913546 -0
    outer loop
      vertex 41.6811 7.4797 0
      vertex 41.175 7.70503 3
      vertex 41.6811 7.4797 3
    endloop
  endfacet
  facet normal 0.406736 0.913546 0
    outer loop
      vertex 41.175 7.70503 3
      vertex 41.6811 7.4797 0
      vertex 41.175 7.70503 0
    endloop
  endfacet
  facet normal 0.743142 0.669134 0
    outer loop
      vertex 40.7268 8.03067 3
      vertex 40.3561 8.44237 0
      vertex 40.3561 8.44237 3
    endloop
  endfacet
  facet normal 0.743142 0.669134 0
    outer loop
      vertex 40.3561 8.44237 0
      vertex 40.7268 8.03067 3
      vertex 40.7268 8.03067 0
    endloop
  endfacet
  facet normal -0.994524 0.104512 0
    outer loop
      vertex 65.0921 9.44903 0
      vertex 65.15 10 3
      vertex 65.15 10 0
    endloop
  endfacet
  facet normal -0.994524 0.104512 0
    outer loop
      vertex 65.15 10 3
      vertex 65.0921 9.44903 0
      vertex 65.0921 9.44903 3
    endloop
  endfacet
  facet normal 0.951053 0.309027 0
    outer loop
      vertex 40.0791 8.92215 3
      vertex 39.9079 9.44903 0
      vertex 39.9079 9.44903 3
    endloop
  endfacet
  facet normal 0.951053 0.309027 0
    outer loop
      vertex 39.9079 9.44903 0
      vertex 40.0791 8.92215 3
      vertex 40.0791 8.92215 0
    endloop
  endfacet
  facet normal 0.58779 0.809014 -0
    outer loop
      vertex 41.175 7.70503 0
      vertex 40.7268 8.03067 3
      vertex 41.175 7.70503 3
    endloop
  endfacet
  facet normal 0.58779 0.809014 0
    outer loop
      vertex 40.7268 8.03067 3
      vertex 41.175 7.70503 0
      vertex 40.7268 8.03067 0
    endloop
  endfacet
  facet normal -0.743142 0.669134 0
    outer loop
      vertex 64.2732 8.03067 0
      vertex 64.6439 8.44237 3
      vertex 64.6439 8.44237 0
    endloop
  endfacet
  facet normal -0.743142 0.669134 0
    outer loop
      vertex 64.6439 8.44237 3
      vertex 64.2732 8.03067 0
      vertex 64.2732 8.03067 3
    endloop
  endfacet
  facet normal -0.86599 -0.500061 0
    outer loop
      vertex 64.9209 11.0779 0
      vertex 64.6439 11.5576 3
      vertex 64.6439 11.5576 0
    endloop
  endfacet
  facet normal -0.86599 -0.500061 0
    outer loop
      vertex 64.6439 11.5576 3
      vertex 64.9209 11.0779 0
      vertex 64.9209 11.0779 3
    endloop
  endfacet
  facet normal -0.951053 0.309027 0
    outer loop
      vertex 64.9209 8.92215 0
      vertex 65.0921 9.44903 3
      vertex 65.0921 9.44903 0
    endloop
  endfacet
  facet normal -0.951053 0.309027 0
    outer loop
      vertex 65.0921 9.44903 3
      vertex 64.9209 8.92215 0
      vertex 64.9209 8.92215 3
    endloop
  endfacet
  facet normal 0.951057 -0.309017 0
    outer loop
      vertex 39.9079 10.551 3
      vertex 40.0791 11.0779 0
      vertex 40.0791 11.0779 3
    endloop
  endfacet
  facet normal 0.951057 -0.309017 0
    outer loop
      vertex 40.0791 11.0779 0
      vertex 39.9079 10.551 3
      vertex 39.9079 10.551 0
    endloop
  endfacet
  facet normal 0.86599 -0.500061 0
    outer loop
      vertex 40.0791 11.0779 3
      vertex 40.3561 11.5576 0
      vertex 40.3561 11.5576 3
    endloop
  endfacet
  facet normal 0.86599 -0.500061 0
    outer loop
      vertex 40.3561 11.5576 0
      vertex 40.0791 11.0779 3
      vertex 40.0791 11.0779 0
    endloop
  endfacet
endsolid OpenSCAD_Model
